# xmcd
#
# Track frame offsets:
#	150
#	15978
#	32160
#	47894
#	63532
#	79906
#	94864
#	114442
#	131910
#	149491
#	163183
#	183160
#	198766
#	213530
#	228106
#	243556
#	258168
#	270691
#	287976
#	303553
#	321070
#	335385
#
# Disc length: 4636 seconds
#
# Revision: 0
# Processed by: cddbd v1.5.2PL0 Copyright (c) Steve Scherf et al.
# Submitted via: EasyCDDAExtractor 2010.3.0.0
#
DISCID=44121a16
DTITLE=Various Artist - Country Hits, Vol. 23
DYEAR=2010
DGENRE=Country
TTITLE0=Bellamy Brothers - Rip Off The Knob
TTITLE1=Chris Knight - Carla Came Home
TTITLE2=Carlene Carter - Queen Of Hearts
TTITLE3=David Allan Coe - I Wanta Know I'm Goin' Home
TTITLE4=Steve Earle - Hillbilly Highway
TTITLE5=Mary Duff - Heartbreaker
TTITLE6=Bellamy Brothers - She Don't Know That She's Perfect
TTITLE7=Chris Knight - House And 90 Acres
TTITLE8=Carlene Carter - Me And The Wildwood Rose
TTITLE9=David Allan Coe - Under Rachel's Wings
TTITLE10=Steve Earle - Angry Young Man
TTITLE11=Bellamy Brothers - Cowboy Beat
TTITLE12=Chris Knight - Staying Up All Night Long
TTITLE13=Carlene Carter - Nowhere Train
TTITLE14=David Allan Coe - If Only Your Eyes Could Lie
TTITLE15=Mary Duff - I'll Be Your San Antone Rose
TTITLE16=Steve Earle - Down The Road
TTITLE17=Bellamy Brothers - My Hearts is Crying
TTITLE18=Chris Knight - Summer Of '75
TTITLE19=Carlene Carter - Me And The Wildwood Rose
TTITLE20=David Allan Coe - Lately I've Been Thinking Too Much Lately
TTITLE21=Steve Earle - Hopeless Romantics
EXTD=
EXTT0=
EXTT1=
EXTT2=
EXTT3=
EXTT4=
EXTT5=
EXTT6=
EXTT7=
EXTT8=
EXTT9=
EXTT10=
EXTT11=
EXTT12=
EXTT13=
EXTT14=
EXTT15=
EXTT16=
EXTT17=
EXTT18=
EXTT19=
EXTT20=
EXTT21=
PLAYORDER=
